<svg width="742" height="136" viewBox="0 0 742 136" fill="none" xmlns="http://www.w3.org/2000/svg">
<path d="M251.286 45.1429H194.143V100H185V36H251.286V45.1429ZM243.423 72.5714H198.714V63.4286H243.423V72.5714Z" fill="white"/>
<path d="M337.927 68C337.927 72.4495 337.226 76.6248 335.824 80.5257C334.422 84.3657 332.411 87.7486 329.79 90.6743C327.23 93.6 324.152 95.8857 320.556 97.5314C316.96 99.1771 312.967 100 308.579 100H287.276C282.826 100 278.803 99.1771 275.207 97.5314C271.611 95.8857 268.502 93.6 265.881 90.6743C263.321 87.7486 261.34 84.3657 259.939 80.5257C258.537 76.6248 257.836 72.4495 257.836 68C257.836 63.6114 258.537 59.4971 259.939 55.6571C261.34 51.7562 263.321 48.3429 265.881 45.4171C268.502 42.4305 271.611 40.1143 275.207 38.4686C278.803 36.8229 282.826 36 287.276 36H308.579C312.967 36 316.96 36.8229 320.556 38.4686C324.152 40.1143 327.23 42.4305 329.79 45.4171C332.411 48.3429 334.422 51.7562 335.824 55.6571C337.226 59.4971 337.927 63.6114 337.927 68ZM328.784 68C328.784 63.7943 327.961 59.9543 326.316 56.48C324.731 53.0057 322.415 50.2629 319.367 48.2514C316.38 46.179 312.784 45.1429 308.579 45.1429H287.276C283.07 45.1429 279.443 46.179 276.396 48.2514C273.409 50.2629 271.093 53.0057 269.447 56.48C267.801 59.9543 266.979 63.7943 266.979 68C266.979 72.2057 267.801 76.0457 269.447 79.52C271.093 82.9333 273.409 85.6762 276.396 87.7486C279.443 89.821 283.07 90.8571 287.276 90.8571H308.579C312.784 90.8571 316.38 89.821 319.367 87.7486C322.415 85.6762 324.731 82.9333 326.316 79.52C327.961 76.0457 328.784 72.2057 328.784 68Z" fill="white"/>
<path d="M426.235 100H413.892L394.692 81.7143H366.624V72.6629H403.378C405.938 72.6629 408.254 72.0533 410.326 70.8343C412.399 69.5543 414.045 67.8781 415.264 65.8057C416.483 63.6724 417.092 61.3562 417.092 58.8571C417.092 56.2971 416.483 53.981 415.264 51.9086C414.045 49.8362 412.399 48.1905 410.326 46.9714C408.254 45.7524 405.938 45.1429 403.378 45.1429H361.504V100H352.361V36H403.378C407.584 36 411.424 37.0362 414.898 39.1086C418.372 41.12 421.115 43.8629 423.126 47.3371C425.199 50.8114 426.235 54.6514 426.235 58.8571C426.235 62.6362 425.382 66.141 423.675 69.3714C422.029 72.6019 419.744 75.2838 416.818 77.4171C413.953 79.4895 410.692 80.8305 407.035 81.44L426.235 100Z" fill="white"/>
<path d="M507.656 100H466.422C461.973 100 457.95 99.1771 454.354 97.5314C450.757 95.8857 447.649 93.6 445.028 90.6743C442.468 87.7486 440.487 84.3657 439.085 80.5257C437.683 76.6248 436.982 72.4495 436.982 68C436.982 63.6114 437.683 59.4971 439.085 55.6571C440.487 51.7562 442.468 48.3429 445.028 45.4171C447.649 42.4305 450.757 40.1143 454.354 38.4686C457.95 36.8229 461.973 36 466.422 36H507.656V45.1429H466.422C462.216 45.1429 458.59 46.179 455.542 48.2514C452.555 50.2629 450.239 53.0057 448.594 56.48C446.948 59.9543 446.125 63.7943 446.125 68C446.125 72.2057 446.948 76.0457 448.594 79.52C450.239 82.9333 452.555 85.6762 455.542 87.7486C458.59 89.821 462.216 90.8571 466.422 90.8571H498.514V72.5714H459.748V63.4286H507.656V100Z" fill="white"/>
<path d="M590.023 100H523.829V36H590.023V45.1429H532.971V90.8571H590.023V100ZM582.251 72.5714H537.543V63.4286H582.251V72.5714Z" fill="white"/>
<path d="M713.877 100H704.734V81.7143H653.626V72.5714H704.734V45.1429H671.911C667.767 45.1429 663.957 46.179 660.483 48.2514C657.009 50.2629 654.235 53.0057 652.163 56.48C650.151 59.9543 649.146 63.7943 649.146 68V100H640.003V68C640.003 63.6114 640.826 59.4971 642.471 55.6571C644.117 51.7562 646.403 48.3429 649.329 45.4171C652.254 42.4305 655.637 40.1143 659.477 38.4686C663.378 36.8229 667.523 36 671.911 36H713.877V100Z" fill="white"/>
<path d="M741.111 100H731.968V36H741.111V100Z" fill="white"/>
<circle cx="68" cy="68" r="68" fill="url(#paint0_linear_29_256)"/>
<path fill-rule="evenodd" clip-rule="evenodd" d="M106.2 119.354C121.859 107.688 132 89.0282 132 68C132 61.6365 131.071 55.4899 129.342 49.6884C119.855 54.7191 110.272 60.7393 102.039 68.836C97.903 72.9052 90.3356 82.0436 89.7623 89.2624C89.5965 91.3545 89.5769 100.7 90.1108 102.206C92.9954 105.819 96.1776 108.998 99.3609 112.178C101.632 114.447 103.904 116.717 106.069 119.145C106.117 119.215 106.16 119.284 106.2 119.354ZM86.3441 129.332C77.2838 121.175 62.1258 121.22 52.9454 127.579C52.4436 127.926 51.6824 128.663 50.9089 129.412C50.834 129.485 50.759 129.558 50.6841 129.63C56.1915 131.174 61.9993 132 68 132C74.3754 132 80.533 131.068 86.3441 129.332ZM30.8678 120.133C14.604 108.528 4 89.5023 4 68C4 64.8394 4.2291 61.7324 4.6716 58.6945C13.4142 68.2847 27.1967 76.1251 37.0772 77.189C37.8481 77.2723 38.6408 77.2787 39.4291 77.285C42.773 77.3118 46.0408 77.3379 47.2551 83.2353C47.8902 86.3197 47.8593 96.5579 47.6204 100.01C47.5164 101.543 47.3197 102.692 46.3362 103.623L31.1846 119.364C31.0233 119.611 30.9276 119.867 30.8678 120.133ZM8.25146 45.0148H36.9367C36.9727 44.648 36.9551 44.0926 36.9355 43.4721C36.8862 41.915 36.8239 39.9477 37.5633 39.5202C56.1977 39.1564 74.8639 39.2089 93.5303 39.2614C104.091 39.2911 114.652 39.3208 125.207 39.2751C114.682 18.3538 93.017 4 68 4C40.7552 4 17.4866 21.024 8.25146 45.0148Z" fill="black"/>
<path fill-rule="evenodd" clip-rule="evenodd" d="M106.2 119.354C121.859 107.688 132 89.0282 132 68C132 61.6365 131.071 55.4899 129.342 49.6884C119.855 54.7191 110.272 60.7393 102.039 68.836C97.903 72.9052 90.3356 82.0436 89.7623 89.2624C89.5965 91.3545 89.5769 100.7 90.1108 102.206C92.9954 105.819 96.1776 108.998 99.3609 112.178C101.632 114.447 103.904 116.717 106.069 119.145C106.117 119.215 106.16 119.284 106.2 119.354ZM86.3441 129.332C77.2838 121.175 62.1258 121.22 52.9454 127.579C52.4436 127.926 51.6824 128.663 50.9089 129.412C50.834 129.485 50.759 129.558 50.6841 129.63C56.1915 131.174 61.9993 132 68 132C74.3754 132 80.533 131.068 86.3441 129.332ZM30.8678 120.133C14.604 108.528 4 89.5023 4 68C4 64.8394 4.2291 61.7324 4.6716 58.6945C13.4142 68.2847 27.1967 76.1251 37.0772 77.189C37.8481 77.2723 38.6408 77.2787 39.4291 77.285C42.773 77.3118 46.0408 77.3379 47.2551 83.2353C47.8902 86.3197 47.8593 96.5579 47.6204 100.01C47.5164 101.543 47.3197 102.692 46.3362 103.623L31.1846 119.364C31.0233 119.611 30.9276 119.867 30.8678 120.133ZM8.25146 45.0148H36.9367C36.9727 44.648 36.9551 44.0926 36.9355 43.4721C36.8862 41.915 36.8239 39.9477 37.5633 39.5202C56.1977 39.1564 74.8639 39.2089 93.5303 39.2614C104.091 39.2911 114.652 39.3208 125.207 39.2751C114.682 18.3538 93.017 4 68 4C40.7552 4 17.4866 21.024 8.25146 45.0148Z" fill="url(#paint1_linear_29_256)" fill-opacity="0.2"/>
<path d="M713.874 100H704.731V81.7143H653.623V72.5714H704.731V45.1429H671.909C667.764 45.1429 663.954 46.179 660.48 48.2514C657.006 50.2629 654.232 53.0057 652.16 56.48C650.149 59.9543 649.143 63.7943 649.143 68V100H640V68C640 63.6114 640.823 59.4971 642.469 55.6571C644.114 51.7562 646.4 48.3429 649.326 45.4171C652.251 42.4305 655.634 40.1143 659.474 38.4686C663.375 36.8229 667.52 36 671.909 36H713.874V100Z" fill="url(#paint2_linear_29_256)"/>
<path d="M741.108 100H731.965V36H741.108V100Z" fill="url(#paint3_linear_29_256)"/>
<defs>
<linearGradient id="paint0_linear_29_256" x1="68" y1="0" x2="68" y2="136" gradientUnits="userSpaceOnUse">
<stop stop-color="#FFCF24"/>
<stop offset="1" stop-color="#FF6A00"/>
</linearGradient>
<linearGradient id="paint1_linear_29_256" x1="68" y1="4" x2="68" y2="132" gradientUnits="userSpaceOnUse">
<stop stop-opacity="0"/>
<stop offset="1"/>
</linearGradient>
<linearGradient id="paint2_linear_29_256" x1="690.554" y1="36" x2="690.554" y2="100" gradientUnits="userSpaceOnUse">
<stop stop-color="#FFCF24"/>
<stop offset="1" stop-color="#FF6A00"/>
</linearGradient>
<linearGradient id="paint3_linear_29_256" x1="690.554" y1="36" x2="690.554" y2="100" gradientUnits="userSpaceOnUse">
<stop stop-color="#FFCF24"/>
<stop offset="1" stop-color="#FF6A00"/>
</linearGradient>
</defs>
</svg>
