<svg width="136" height="136" viewBox="0 0 136 136" fill="none" xmlns="http://www.w3.org/2000/svg">
<circle cx="68" cy="68" r="68" fill="url(#paint0_linear_28_239)"/>
<path fill-rule="evenodd" clip-rule="evenodd" d="M106.2 119.354C121.859 107.688 132 89.0282 132 68C132 61.6365 131.071 55.4899 129.342 49.6884C119.855 54.7191 110.272 60.7393 102.039 68.836C97.903 72.9052 90.3356 82.0436 89.7623 89.2624C89.5965 91.3545 89.5769 100.7 90.1108 102.206C92.9954 105.819 96.1776 108.998 99.3609 112.178C101.632 114.447 103.904 116.717 106.069 119.145C106.117 119.215 106.16 119.284 106.2 119.354ZM86.3441 129.332C77.2838 121.175 62.1258 121.22 52.9454 127.579C52.4436 127.926 51.6824 128.663 50.9089 129.412C50.834 129.485 50.759 129.558 50.6841 129.63C56.1915 131.174 61.9993 132 68 132C74.3754 132 80.533 131.068 86.3441 129.332ZM30.8678 120.133C14.604 108.528 4 89.5023 4 68C4 64.8394 4.2291 61.7324 4.6716 58.6945C13.4142 68.2847 27.1967 76.1251 37.0772 77.189C37.8481 77.2723 38.6408 77.2787 39.4291 77.285C42.773 77.3118 46.0408 77.3379 47.2551 83.2353C47.8902 86.3197 47.8593 96.5579 47.6204 100.01C47.5164 101.543 47.3197 102.692 46.3362 103.623L31.1846 119.364C31.0233 119.611 30.9276 119.867 30.8678 120.133ZM8.25146 45.0148H36.9367C36.9727 44.648 36.9551 44.0926 36.9355 43.4721C36.8862 41.915 36.8239 39.9477 37.5633 39.5202C56.1977 39.1564 74.8639 39.2089 93.5303 39.2614C104.091 39.2911 114.652 39.3208 125.207 39.2751C114.682 18.3538 93.017 4 68 4C40.7552 4 17.4866 21.024 8.25146 45.0148Z" fill="black"/>
<path fill-rule="evenodd" clip-rule="evenodd" d="M106.2 119.354C121.859 107.688 132 89.0282 132 68C132 61.6365 131.071 55.4899 129.342 49.6884C119.855 54.7191 110.272 60.7393 102.039 68.836C97.903 72.9052 90.3356 82.0436 89.7623 89.2624C89.5965 91.3545 89.5769 100.7 90.1108 102.206C92.9954 105.819 96.1776 108.998 99.3609 112.178C101.632 114.447 103.904 116.717 106.069 119.145C106.117 119.215 106.16 119.284 106.2 119.354ZM86.3441 129.332C77.2838 121.175 62.1258 121.22 52.9454 127.579C52.4436 127.926 51.6824 128.663 50.9089 129.412C50.834 129.485 50.759 129.558 50.6841 129.63C56.1915 131.174 61.9993 132 68 132C74.3754 132 80.533 131.068 86.3441 129.332ZM30.8678 120.133C14.604 108.528 4 89.5023 4 68C4 64.8394 4.2291 61.7324 4.6716 58.6945C13.4142 68.2847 27.1967 76.1251 37.0772 77.189C37.8481 77.2723 38.6408 77.2787 39.4291 77.285C42.773 77.3118 46.0408 77.3379 47.2551 83.2353C47.8902 86.3197 47.8593 96.5579 47.6204 100.01C47.5164 101.543 47.3197 102.692 46.3362 103.623L31.1846 119.364C31.0233 119.611 30.9276 119.867 30.8678 120.133ZM8.25146 45.0148H36.9367C36.9727 44.648 36.9551 44.0926 36.9355 43.4721C36.8862 41.915 36.8239 39.9477 37.5633 39.5202C56.1977 39.1564 74.8639 39.2089 93.5303 39.2614C104.091 39.2911 114.652 39.3208 125.207 39.2751C114.682 18.3538 93.017 4 68 4C40.7552 4 17.4866 21.024 8.25146 45.0148Z" fill="url(#paint1_linear_28_239)" fill-opacity="0.2"/>
<defs>
<linearGradient id="paint0_linear_28_239" x1="68" y1="0" x2="68" y2="136" gradientUnits="userSpaceOnUse">
<stop stop-color="#FFCF24"/>
<stop offset="1" stop-color="#FF6A00"/>
</linearGradient>
<linearGradient id="paint1_linear_28_239" x1="68" y1="4" x2="68" y2="132" gradientUnits="userSpaceOnUse">
<stop stop-opacity="0"/>
<stop offset="1"/>
</linearGradient>
</defs>
</svg>
